<svg width="46" height="46" viewBox="0 0 46 46" fill="none" xmlns="http://www.w3.org/2000/svg">
<g id="uil:android">
<path id="Vector" d="M28.7021 5.78639L30.5421 2.46672C30.5656 2.42419 30.5805 2.37743 30.586 2.32912C30.5914 2.28082 30.5873 2.23191 30.5739 2.18519C30.5605 2.13847 30.538 2.09486 30.5077 2.05683C30.4774 2.01881 30.4399 1.98713 30.3974 1.9636C30.3548 1.94006 30.3081 1.92514 30.2598 1.91967C30.2114 1.91421 30.1625 1.91831 30.1158 1.93175C30.0691 1.94519 30.0255 1.9677 29.9875 1.99799C29.9494 2.02828 29.9178 2.06577 29.8942 2.10831L28.0351 5.46247C26.448 4.76663 24.7339 4.40736 23.0009 4.40736C21.268 4.40736 19.5539 4.76663 17.9668 5.46247L16.1076 2.10831C16.0601 2.02189 15.9802 1.95789 15.8855 1.9304C15.7908 1.9029 15.689 1.91415 15.6026 1.96168C15.5162 2.00921 15.4522 2.08912 15.4247 2.18383C15.3972 2.27855 15.4084 2.38031 15.456 2.46672L17.296 5.78639C15.5453 6.64983 14.0661 7.97867 13.0208 9.62721C11.9754 11.2757 11.4041 13.1803 11.3696 15.1321H34.6322C34.5974 13.1799 34.0256 11.2751 32.9795 9.62649C31.9334 7.97792 30.4535 6.6493 28.7021 5.78639ZM17.6333 10.8751C17.441 10.8751 17.2531 10.8181 17.0932 10.7112C16.9334 10.6044 16.8088 10.4525 16.7353 10.2748C16.6619 10.0971 16.6427 9.90166 16.6804 9.7131C16.718 9.52455 16.8108 9.35141 16.9469 9.21558C17.083 9.07976 17.2563 8.98736 17.4449 8.95008C17.6335 8.9128 17.829 8.93232 18.0065 9.00616C18.184 9.08 18.3357 9.20485 18.4422 9.36491C18.5488 9.52497 18.6054 9.71303 18.6051 9.90531C18.6046 10.1627 18.5019 10.4094 18.3198 10.5912C18.1376 10.773 17.8907 10.8751 17.6333 10.8751ZM28.3705 10.8751C28.1782 10.8751 27.9902 10.8181 27.8304 10.7112C27.6706 10.6044 27.546 10.4525 27.4725 10.2748C27.399 10.0971 27.3799 9.90166 27.4175 9.7131C27.4552 9.52455 27.5479 9.35141 27.684 9.21558C27.8201 9.07976 27.9934 8.98736 28.1821 8.95008C28.3707 8.9128 28.5661 8.93232 28.7437 9.00616C28.9212 9.08 29.0728 9.20485 29.1794 9.36491C29.2859 9.52497 29.3426 9.71303 29.3422 9.90531C29.3417 10.1627 29.2391 10.4094 29.0569 10.5912C28.8747 10.773 28.6279 10.8751 28.3705 10.8751ZM11.3658 32.9111C11.3653 33.2811 11.4378 33.6476 11.5793 33.9896C11.7207 34.3315 11.9283 34.6422 12.19 34.9038C12.4518 35.1654 12.7626 35.3727 13.1046 35.5139C13.4467 35.6551 13.8133 35.7274 14.1833 35.7266H16.0482V41.4766C16.0482 42.1682 16.323 42.8315 16.812 43.3205C17.301 43.8095 17.9643 44.0843 18.6558 44.0843C19.3474 44.0843 20.0107 43.8095 20.4997 43.3205C20.9887 42.8315 21.2635 42.1682 21.2635 41.4766V35.7266H24.7403V41.4766C24.7403 42.168 25.0149 42.831 25.5038 43.3198C25.9926 43.8087 26.6556 44.0833 27.347 44.0833C28.0383 44.0833 28.7013 43.8087 29.1902 43.3198C29.679 42.831 29.9536 42.168 29.9536 41.4766V35.7266H31.8205C32.19 35.7269 32.556 35.6543 32.8975 35.513C33.239 35.3717 33.5493 35.1644 33.8106 34.9031C34.0719 34.6418 34.2792 34.3315 34.4205 33.99C34.5618 33.6485 34.6344 33.2825 34.6341 32.913V16.0521H11.3658V32.9111ZM7.78739 15.6036C7.09604 15.6046 6.43332 15.8798 5.94464 16.3688C5.45596 16.8579 5.18123 17.5208 5.18073 18.2121V29.0777C5.18073 29.42 5.24815 29.759 5.37915 30.0753C5.51014 30.3915 5.70215 30.6789 5.9442 30.9209C6.18625 31.163 6.47361 31.355 6.78986 31.486C7.10612 31.617 7.44508 31.6844 7.78739 31.6844C8.1297 31.6844 8.46866 31.617 8.78492 31.486C9.10118 31.355 9.38853 31.163 9.63058 30.9209C9.87264 30.6789 10.0646 30.3915 10.1956 30.0753C10.3266 29.759 10.3941 29.42 10.3941 29.0777V18.2121C10.393 17.5211 10.1181 16.8587 9.62946 16.3701C9.14084 15.8814 8.47841 15.6065 7.78739 15.6055M38.2087 15.6055C37.5174 15.6065 36.8547 15.8817 36.366 16.3707C35.8773 16.8598 35.6026 17.5227 35.6021 18.2141V29.0796C35.6021 29.422 35.6695 29.7609 35.8005 30.0772C35.9315 30.3934 36.1235 30.6808 36.3655 30.9228C36.6076 31.1649 36.8949 31.3569 37.2112 31.4879C37.5275 31.6189 37.8664 31.6863 38.2087 31.6863C38.551 31.6863 38.89 31.6189 39.2063 31.4879C39.5225 31.3569 39.8099 31.1649 40.0519 30.9228C40.294 30.6808 40.486 30.3934 40.617 30.0772C40.748 29.7609 40.8154 29.422 40.8154 29.0796V18.2121C40.8144 17.5211 40.5394 16.8587 40.0508 16.3701C39.5622 15.8814 38.8997 15.6065 38.2087 15.6055Z" fill="black"/>
</g>
</svg>
