<svg width="46" height="46" viewBox="0 0 46 46" fill="none" xmlns="http://www.w3.org/2000/svg">
<g id="bi:apple" clip-path="url(#clip0_27_48)">
<g id="Group">
<path id="Vector" d="M32.1482 0.0230202C32.0505 -0.0862298 28.5286 0.0661452 25.4638 3.39252C22.3991 6.71602 22.8706 10.5283 22.9396 10.626C23.0086 10.7238 27.3096 10.8761 30.0552 7.00927C32.8008 3.14239 32.246 0.135145 32.1482 0.0230202ZM41.676 33.7554C41.538 33.4794 34.9916 30.2076 35.6011 23.9171C36.2106 17.6266 40.4167 15.8988 40.4828 15.7119C40.549 15.525 38.7665 13.4406 36.8776 12.3855C35.4905 11.6423 33.9557 11.2162 32.384 11.1378C32.0735 11.1291 30.9953 10.8646 28.7787 11.4713C27.3182 11.8709 24.0263 13.1646 23.1207 13.2164C22.2122 13.2681 19.5097 11.7156 16.6031 11.3045C14.743 10.9451 12.7707 11.6811 11.3591 12.2475C9.95035 12.811 7.27085 14.4153 5.39634 18.6789C3.52184 22.9396 4.50222 29.6901 5.20372 31.7889C5.90522 33.8876 7.0006 37.3204 8.8636 39.8274C10.5196 42.6564 12.7161 44.62 13.6332 45.287C14.5503 45.954 17.1378 46.3968 18.9318 45.4796C20.3751 44.5941 22.9798 44.0853 24.0091 44.1226C25.0355 44.16 27.0595 44.5654 29.1323 45.6723C30.774 46.2386 32.3265 46.0029 33.8818 45.3704C35.4372 44.735 37.6883 42.3258 40.3161 37.4411C41.3128 35.1699 41.7661 33.9413 41.676 33.7554Z" fill="black"/>
<path id="Vector_2" d="M32.1482 0.0230202C32.0505 -0.0862298 28.5286 0.0661452 25.4638 3.39252C22.3991 6.71602 22.8706 10.5283 22.9396 10.626C23.0086 10.7238 27.3096 10.8761 30.0552 7.00927C32.8008 3.14239 32.246 0.135145 32.1482 0.0230202ZM41.676 33.7554C41.538 33.4794 34.9916 30.2076 35.6011 23.9171C36.2106 17.6266 40.4167 15.8988 40.4828 15.7119C40.549 15.525 38.7665 13.4406 36.8776 12.3855C35.4905 11.6423 33.9557 11.2162 32.384 11.1378C32.0735 11.1291 30.9953 10.8646 28.7787 11.4713C27.3182 11.8709 24.0263 13.1646 23.1207 13.2164C22.2122 13.2681 19.5097 11.7156 16.6031 11.3045C14.743 10.9451 12.7707 11.6811 11.3591 12.2475C9.95035 12.811 7.27085 14.4153 5.39634 18.6789C3.52184 22.9396 4.50222 29.6901 5.20372 31.7889C5.90522 33.8876 7.0006 37.3204 8.8636 39.8274C10.5196 42.6564 12.7161 44.62 13.6332 45.287C14.5503 45.954 17.1378 46.3968 18.9318 45.4796C20.3751 44.5941 22.9798 44.0853 24.0091 44.1226C25.0355 44.16 27.0595 44.5654 29.1323 45.6723C30.774 46.2386 32.3265 46.0029 33.8818 45.3704C35.4372 44.735 37.6883 42.3258 40.3161 37.4411C41.3128 35.1699 41.7661 33.9413 41.676 33.7554Z" fill="black"/>
</g>
</g>
<defs>
<clipPath id="clip0_27_48">
<rect width="46" height="46" fill="white"/>
</clipPath>
</defs>
</svg>
